<svg viewBox="0 0 30 30">
    <path d="M8.68418 12.0632C8.2105 12.5369 8.2105 13.2948 8.68418 13.7369C9.15787 14.2106 9.91576 14.2106 10.3579 13.7369L13.8 10.2948V22.5158C13.8 23.179 14.3368 23.7158 15 23.7158C15.6631 23.7158 16.2 23.179 16.2 22.5158V10.3264L19.6421 13.7685C20.1158 14.2422 20.8737 14.2422 21.3158 13.7685C21.5368 13.5474 21.6631 13.2316 21.6631 12.9158C21.6631 12.6001 21.5368 12.3158 21.3158 12.0632L15.8526 6.60005C15.6316 6.379 15.3158 6.25269 15 6.25269C14.6842 6.25269 14.3684 6.379 14.1473 6.60005L8.68418 12.0632Z" />
    <path d="M0 15C0 23.2737 6.72632 30 15 30C23.2737 30 30 23.2737 30 15C30 6.72632 23.2737 0 15 0C6.72632 0 0 6.72632 0 15ZM27.6316 15C27.6316 21.9474 21.9474 27.6316 15 27.6316C8.05263 27.6316 2.36842 21.9474 2.36842 15C2.36842 8.05263 8.05263 2.36842 15 2.36842C21.9474 2.36842 27.6316 8.05263 27.6316 15Z" />
</svg>

